<svg id="visual" viewBox="0 0 900 600" width="900" height="600" xmlns="http://www.w3.org/2000/svg" xmlns:xlink="http://www.w3.org/1999/xlink" version="1.1"><rect width="900" height="600" fill="#ED6A5A"></rect><g><g transform="translate(523 597)"><path d="M89.1 -26C102.1 10.8 89.8 58.8 56.7 84.4C23.6 110 -30.5 113.1 -65.5 88.2C-100.4 63.2 -116.4 10.1 -102.3 -28.3C-88.2 -66.8 -44.1 -90.5 -3 -89.6C38.1 -88.6 76.2 -62.9 89.1 -26Z" stroke="#F4A259" fill="none" stroke-width="20"></path></g><g transform="translate(286 171)"><path d="M74.6 -21.8C86 10.8 77.2 52.4 49.8 73.5C22.4 94.6 -23.6 95.2 -53.7 73.4C-83.8 51.7 -98 7.6 -86.4 -25.3C-74.8 -58.2 -37.4 -79.9 -2.9 -78.9C31.6 -78 63.2 -54.4 74.6 -21.8Z" stroke="#F4A259" fill="none" stroke-width="20"></path></g><g transform="translate(25 532)"><path d="M51.8 -16.8C57.5 0.8 46 24 28 36.6C10.1 49.2 -14.2 51.1 -29.8 40C-45.4 28.9 -52.2 4.9 -45.8 -13.6C-39.4 -32.1 -19.7 -45 1.7 -45.6C23 -46.1 46.1 -34.3 51.8 -16.8Z" stroke="#F4A259" fill="none" stroke-width="20"></path></g><g transform="translate(841 272)"><path d="M73.4 -22.4C85.4 13 78.7 56 53.2 74.8C27.8 93.7 -16.3 88.4 -44.1 66.8C-71.9 45.1 -83.4 7.1 -73.4 -25.7C-63.3 -58.5 -31.7 -86.1 -0.5 -86C30.7 -85.8 61.5 -57.9 73.4 -22.4Z" stroke="#F4A259" fill="none" stroke-width="20"></path></g><g transform="translate(599 74)"><path d="M80.8 -26.7C91.4 6.5 77.6 47.2 49.7 67.3C21.7 87.4 -20.5 86.8 -49.5 66.2C-78.5 45.6 -94.3 4.9 -83.9 -28C-73.4 -61 -36.7 -86.1 -0.8 -85.9C35.1 -85.6 70.2 -59.9 80.8 -26.7Z" stroke="#F4A259" fill="none" stroke-width="20"></path></g><g transform="translate(3 17)"><path d="M73.6 -24.2C83.5 6.8 71.7 44.5 46.3 62.8C20.9 81 -18 79.6 -45.8 60.1C-73.6 40.6 -90.4 2.9 -80.9 -27.5C-71.5 -57.8 -35.7 -80.8 -2 -80.1C31.8 -79.5 63.6 -55.2 73.6 -24.2Z" stroke="#F4A259" fill="none" stroke-width="20"></path></g><g transform="translate(849 596)"><path d="M69.4 -20.6C79.6 8.7 70.3 46.3 46.5 63.5C22.7 80.7 -15.6 77.4 -42.2 58.1C-68.7 38.8 -83.6 3.4 -74.6 -24.2C-65.6 -51.9 -32.8 -71.8 -1.6 -71.3C29.6 -70.8 59.3 -49.8 69.4 -20.6Z" stroke="#F4A259" fill="none" stroke-width="20"></path></g></g></svg>