<svg id="visual" viewBox="0 0 900 600" width="900" height="600" xmlns="http://www.w3.org/2000/svg" xmlns:xlink="http://www.w3.org/1999/xlink" version="1.1"><rect width="900" height="600" fill="#FF9F4A"></rect><g><g transform="translate(343 48)"><path d="M90 -27.5C104.4 14.9 95.2 66.7 65.3 88.1C35.3 109.5 -15.6 100.4 -51.7 73.6C-87.9 46.8 -109.4 2.1 -98.3 -35.8C-87.3 -73.6 -43.6 -104.7 -2.9 -103.8C37.8 -102.9 75.7 -69.9 90 -27.5Z" fill="none" stroke="#EE5C4A" stroke-width="20"></path></g><g transform="translate(543 523)"><path d="M49.8 -16.8C56.7 4.9 48.9 30.8 32.5 42.1C16.1 53.4 -9 50.2 -27.3 37C-45.5 23.9 -57 0.8 -51.3 -19.3C-45.6 -39.3 -22.8 -56.4 -0.7 -56.2C21.5 -56 43 -38.5 49.8 -16.8Z" fill="none" stroke="#EE5C4A" stroke-width="20"></path></g><g transform="translate(27 329)"><path d="M50.1 -16C56.9 4.4 48.6 30 30.9 43.1C13.1 56.2 -14.3 56.7 -31.9 43.9C-49.4 31.1 -57.3 5 -50.3 -15.7C-43.4 -36.4 -21.7 -51.6 0 -51.6C21.7 -51.6 43.4 -36.4 50.1 -16Z" fill="none" stroke="#EE5C4A" stroke-width="20"></path></g><g transform="translate(809 366)"><path d="M80.5 -26.4C90.1 3.6 74 41.6 47.2 60C20.3 78.3 -17.3 76.9 -42.4 58.6C-67.6 40.3 -80.3 5 -71.1 -24.3C-62 -53.6 -31 -77 2.2 -77.7C35.4 -78.4 70.8 -56.5 80.5 -26.4Z" fill="none" stroke="#EE5C4A" stroke-width="20"></path></g><g transform="translate(692 93)"><path d="M72.1 -22.7C82.4 8.2 72.1 46.6 44.2 68.7C16.3 90.9 -29.1 96.8 -58.7 76.3C-88.2 55.9 -101.9 9.2 -89.5 -24.7C-77.1 -58.6 -38.5 -79.7 -3.8 -78.5C30.9 -77.3 61.8 -53.7 72.1 -22.7Z" fill="none" stroke="#EE5C4A" stroke-width="20"></path></g><g transform="translate(168 591)"><path d="M61.3 -16.8C70.3 7.8 62.1 41.1 40.1 57.7C18 74.3 -18 74.3 -41.1 57.3C-64.2 40.3 -74.5 6.4 -65.5 -18.2C-56.5 -42.8 -28.2 -58.1 -1.1 -57.8C26.1 -57.4 52.2 -41.4 61.3 -16.8Z" fill="none" stroke="#EE5C4A" stroke-width="20"></path></g></g></svg>