<svg id="visual" viewBox="0 0 900 600" width="900" height="600" xmlns="http://www.w3.org/2000/svg" xmlns:xlink="http://www.w3.org/1999/xlink" version="1.1"><rect x="0" y="0" width="900" height="600" fill="#519D54"></rect><defs><linearGradient id="grad1_0" x1="33.3%" y1="0%" x2="100%" y2="100%"><stop offset="20%" stop-color="#519d54" stop-opacity="1"></stop><stop offset="80%" stop-color="#519d54" stop-opacity="1"></stop></linearGradient></defs><defs><linearGradient id="grad2_0" x1="0%" y1="0%" x2="66.7%" y2="100%"><stop offset="20%" stop-color="#519d54" stop-opacity="1"></stop><stop offset="80%" stop-color="#519d54" stop-opacity="1"></stop></linearGradient></defs><g transform="translate(900, 0)"><path d="M0 243.4C-37.7 245.6 -75.4 247.8 -93.1 224.8C-110.9 201.9 -108.8 153.9 -130.8 130.8C-152.8 107.7 -199 109.5 -221.7 91.8C-244.5 74.2 -243.9 37.1 -243.4 0L0 0Z" fill="#FF9F4A"></path></g><g transform="translate(0, 600)"><path d="M0 -243.4C37 -245 74 -246.7 93.1 -224.8C112.3 -203 113.7 -157.6 133.6 -133.6C153.6 -109.7 192 -107.1 213.4 -88.4C234.8 -69.7 239.1 -34.8 243.4 0L0 0Z" fill="#FF9F4A"></path></g></svg>