<svg id="visual" viewBox="0 0 900 200" width="900" height="200" xmlns="http://www.w3.org/2000/svg" xmlns:xlink="http://www.w3.org/1999/xlink" version="1.1"><path d="M0 84L25 94C50 104 100 124 150 130.3C200 136.7 250 129.3 300 127.8C350 126.3 400 130.7 450 120.3C500 110 550 85 600 78.8C650 72.7 700 85.3 750 93.2C800 101 850 104 875 105.5L900 107L900 201L875 201C850 201 800 201 750 201C700 201 650 201 600 201C550 201 500 201 450 201C400 201 350 201 300 201C250 201 200 201 150 201C100 201 50 201 25 201L0 201Z" fill="#519D54" stroke-linecap="round" stroke-linejoin="miter"></path></svg>