<svg id="visual" viewBox="0 0 900 1200" width="900" height="1200" xmlns="http://www.w3.org/2000/svg" xmlns:xlink="http://www.w3.org/1999/xlink" version="1.1"><g stroke-width="1" stroke-linejoin="bevel"><path d="M472 592L479 518L378 496Z" fill="#f16349" stroke="#f16349"></path><path d="M378 496L379 618L472 592Z" fill="#fd9248" stroke="#fd9248"></path><path d="M378 496L324 518L379 618Z" fill="#f97e47" stroke="#f97e47"></path><path d="M479 518L463 421L378 496Z" fill="#f77747" stroke="#f77747"></path><path d="M378 496L304 430L324 518Z" fill="#f77747" stroke="#f77747"></path><path d="M463 421L360 423L378 496Z" fill="#ee5c4a" stroke="#ee5c4a"></path><path d="M324 518L305 635L379 618Z" fill="#fc8b47" stroke="#fc8b47"></path><path d="M305 635L323 671L379 618Z" fill="#fd9248" stroke="#fd9248"></path><path d="M379 618L395 718L472 592Z" fill="#fb8547" stroke="#fb8547"></path><path d="M360 423L304 430L378 496Z" fill="#fe9849" stroke="#fe9849"></path><path d="M324 518L211 607L305 635Z" fill="#f36a48" stroke="#f36a48"></path><path d="M323 671L395 718L379 618Z" fill="#f97e47" stroke="#f97e47"></path><path d="M395 718L533 710L472 592Z" fill="#f77747" stroke="#f77747"></path><path d="M633 590L626 507L479 518Z" fill="#fb8547" stroke="#fb8547"></path><path d="M479 518L625 406L463 421Z" fill="#f57148" stroke="#f57148"></path><path d="M633 590L479 518L472 592Z" fill="#fc8b47" stroke="#fc8b47"></path><path d="M463 421L388 336L360 423Z" fill="#fb8547" stroke="#fb8547"></path><path d="M360 423L338 334L304 430Z" fill="#f97e47" stroke="#f97e47"></path><path d="M491 327L388 336L463 421Z" fill="#f77747" stroke="#f77747"></path><path d="M187 526L211 607L324 518Z" fill="#f16349" stroke="#f16349"></path><path d="M305 635L179 706L323 671Z" fill="#fd9248" stroke="#fd9248"></path><path d="M379 838L472 811L395 718Z" fill="#fc8b47" stroke="#fc8b47"></path><path d="M533 710L633 590L472 592Z" fill="#ee5c4a" stroke="#ee5c4a"></path><path d="M388 336L338 334L360 423Z" fill="#f36a48" stroke="#f36a48"></path><path d="M304 430L187 526L324 518Z" fill="#f16349" stroke="#f16349"></path><path d="M214 360L187 526L304 430Z" fill="#ee5c4a" stroke="#ee5c4a"></path><path d="M625 406L491 327L463 421Z" fill="#f77747" stroke="#f77747"></path><path d="M388 336L308 231L338 334Z" fill="#f16349" stroke="#f16349"></path><path d="M533 710L617 701L633 590Z" fill="#fb8547" stroke="#fb8547"></path><path d="M633 590L665 509L626 507Z" fill="#fc8b47" stroke="#fc8b47"></path><path d="M626 507L625 406L479 518Z" fill="#fb8547" stroke="#fb8547"></path><path d="M706 566L665 509L633 590Z" fill="#fe9849" stroke="#fe9849"></path><path d="M665 509L625 406L626 507Z" fill="#f97e47" stroke="#f97e47"></path><path d="M305 791L395 718L323 671Z" fill="#f16349" stroke="#f16349"></path><path d="M395 718L472 811L533 710Z" fill="#fe9849" stroke="#fe9849"></path><path d="M533 710L597 790L617 701Z" fill="#fe9849" stroke="#fe9849"></path><path d="M179 706L305 791L323 671Z" fill="#fb8547" stroke="#fb8547"></path><path d="M338 334L214 360L304 430Z" fill="#f36a48" stroke="#f36a48"></path><path d="M117 601L179 706L211 607Z" fill="#fe9849" stroke="#fe9849"></path><path d="M211 607L179 706L305 635Z" fill="#fd9248" stroke="#fd9248"></path><path d="M625 406L566 303L491 327Z" fill="#f16349" stroke="#f16349"></path><path d="M491 327L468 225L388 336Z" fill="#f36a48" stroke="#f36a48"></path><path d="M735 664L706 566L633 590Z" fill="#ff9f4a" stroke="#ff9f4a"></path><path d="M665 509L700 413L625 406Z" fill="#ee5c4a" stroke="#ee5c4a"></path><path d="M305 791L379 838L395 718Z" fill="#f57148" stroke="#f57148"></path><path d="M472 811L597 790L533 710Z" fill="#f16349" stroke="#f16349"></path><path d="M617 701L735 664L633 590Z" fill="#f77747" stroke="#f77747"></path><path d="M478 919L597 790L472 811Z" fill="#ee5c4a" stroke="#ee5c4a"></path><path d="M67 526L117 601L187 526Z" fill="#fc8b47" stroke="#fc8b47"></path><path d="M187 526L117 601L211 607Z" fill="#fd9248" stroke="#fd9248"></path><path d="M808 506L700 413L665 509Z" fill="#fc8b47" stroke="#fc8b47"></path><path d="M625 406L677 285L566 303Z" fill="#ff9f4a" stroke="#ff9f4a"></path><path d="M295 935L386 862L379 838Z" fill="#fd9248" stroke="#fd9248"></path><path d="M379 838L386 862L472 811Z" fill="#f97e47" stroke="#f97e47"></path><path d="M295 935L379 838L305 791Z" fill="#f97e47" stroke="#f97e47"></path><path d="M338 334L212 307L214 360Z" fill="#ee5c4a" stroke="#ee5c4a"></path><path d="M85 413L67 526L187 526Z" fill="#fe9849" stroke="#fe9849"></path><path d="M308 231L212 307L338 334Z" fill="#fb8547" stroke="#fb8547"></path><path d="M566 303L468 225L491 327Z" fill="#fe9849" stroke="#fe9849"></path><path d="M727 770L735 664L617 701Z" fill="#fd9248" stroke="#fd9248"></path><path d="M706 566L808 506L665 509Z" fill="#f16349" stroke="#f16349"></path><path d="M389 189L308 231L388 336Z" fill="#f77747" stroke="#f77747"></path><path d="M735 664L761 591L706 566Z" fill="#fc8b47" stroke="#fc8b47"></path><path d="M85 413L187 526L214 360Z" fill="#ee5c4a" stroke="#ee5c4a"></path><path d="M136 766L214 837L179 706Z" fill="#ff9f4a" stroke="#ff9f4a"></path><path d="M136 766L179 706L92 733Z" fill="#fe9849" stroke="#fe9849"></path><path d="M179 706L214 837L305 791Z" fill="#f77747" stroke="#f77747"></path><path d="M92 733L179 706L117 601Z" fill="#f77747" stroke="#f77747"></path><path d="M105 334L85 413L214 360Z" fill="#fb8547" stroke="#fb8547"></path><path d="M468 225L389 189L388 336Z" fill="#fc8b47" stroke="#fc8b47"></path><path d="M700 413L677 285L625 406Z" fill="#f36a48" stroke="#f36a48"></path><path d="M566 303L568 168L468 225Z" fill="#ee5c4a" stroke="#ee5c4a"></path><path d="M478 64L387 81L389 189Z" fill="#ee5c4a" stroke="#ee5c4a"></path><path d="M800 367L677 285L700 413Z" fill="#f57148" stroke="#f57148"></path><path d="M415 972L478 919L386 862Z" fill="#f36a48" stroke="#f36a48"></path><path d="M386 862L478 919L472 811Z" fill="#fd9248" stroke="#fd9248"></path><path d="M597 790L727 770L617 701Z" fill="#ee5c4a" stroke="#ee5c4a"></path><path d="M99 916L225 885L214 837Z" fill="#ff9f4a" stroke="#ff9f4a"></path><path d="M0 696L92 733L117 601Z" fill="#fc8b47" stroke="#fc8b47"></path><path d="M686 862L727 770L597 790Z" fill="#f97e47" stroke="#f97e47"></path><path d="M735 664L799 699L761 591Z" fill="#f77747" stroke="#f77747"></path><path d="M92 237L105 334L212 307Z" fill="#f57148" stroke="#f57148"></path><path d="M212 307L105 334L214 360Z" fill="#f97e47" stroke="#f97e47"></path><path d="M92 237L212 307L163 173Z" fill="#fd9248" stroke="#fd9248"></path><path d="M99 916L214 837L136 766Z" fill="#ff9f4a" stroke="#ff9f4a"></path><path d="M214 837L225 885L305 791Z" fill="#f36a48" stroke="#f36a48"></path><path d="M900 598L808 506L761 591Z" fill="#fc8b47" stroke="#fc8b47"></path><path d="M761 591L808 506L706 566Z" fill="#fe9849" stroke="#fe9849"></path><path d="M225 885L295 935L305 791Z" fill="#f97e47" stroke="#f97e47"></path><path d="M727 770L799 699L735 664Z" fill="#fb8547" stroke="#fb8547"></path><path d="M677 285L568 168L566 303Z" fill="#f36a48" stroke="#f36a48"></path><path d="M624 910L686 862L597 790Z" fill="#fc8b47" stroke="#fc8b47"></path><path d="M727 770L783 833L799 699Z" fill="#f36a48" stroke="#f36a48"></path><path d="M478 919L624 910L597 790Z" fill="#f97e47" stroke="#f97e47"></path><path d="M515 988L624 910L478 919Z" fill="#ee5c4a" stroke="#ee5c4a"></path><path d="M0 476L0 593L67 526Z" fill="#f97e47" stroke="#f97e47"></path><path d="M67 526L0 593L117 601Z" fill="#fb8547" stroke="#fb8547"></path><path d="M0 476L67 526L85 413Z" fill="#fb8547" stroke="#fb8547"></path><path d="M808 506L800 367L700 413Z" fill="#f57148" stroke="#f57148"></path><path d="M707 181L580 126L568 168Z" fill="#f57148" stroke="#f57148"></path><path d="M295 935L415 972L386 862Z" fill="#ff9f4a" stroke="#ff9f4a"></path><path d="M0 391L0 476L85 413Z" fill="#fe9849" stroke="#fe9849"></path><path d="M0 593L0 696L117 601Z" fill="#f16349" stroke="#f16349"></path><path d="M92 733L0 787L136 766Z" fill="#f57148" stroke="#f57148"></path><path d="M105 334L0 391L85 413Z" fill="#fd9248" stroke="#fd9248"></path><path d="M415 972L515 988L478 919Z" fill="#fc8b47" stroke="#fc8b47"></path><path d="M163 173L212 307L308 231Z" fill="#ff9f4a" stroke="#ff9f4a"></path><path d="M105 334L0 265L0 391Z" fill="#ff9f4a" stroke="#ff9f4a"></path><path d="M707 181L568 168L677 285Z" fill="#f97e47" stroke="#f97e47"></path><path d="M478 64L389 189L468 225Z" fill="#f16349" stroke="#f16349"></path><path d="M218 120L163 173L308 231Z" fill="#f16349" stroke="#f16349"></path><path d="M218 120L308 231L318 66Z" fill="#fb8547" stroke="#fb8547"></path><path d="M768 921L686 862L624 910Z" fill="#ff9f4a" stroke="#ff9f4a"></path><path d="M768 921L783 833L686 862Z" fill="#f97e47" stroke="#f97e47"></path><path d="M686 862L783 833L727 770Z" fill="#f97e47" stroke="#f97e47"></path><path d="M827 267L707 181L677 285Z" fill="#f57148" stroke="#f57148"></path><path d="M478 64L468 225L568 168Z" fill="#fd9248" stroke="#fd9248"></path><path d="M318 66L308 231L389 189Z" fill="#fb8547" stroke="#fb8547"></path><path d="M0 173L0 265L92 237Z" fill="#fb8547" stroke="#fb8547"></path><path d="M0 696L0 787L92 733Z" fill="#fc8b47" stroke="#fc8b47"></path><path d="M235 1024L280 1016L295 935Z" fill="#ff9f4a" stroke="#ff9f4a"></path><path d="M900 712L900 598L799 699Z" fill="#f57148" stroke="#f57148"></path><path d="M799 699L900 598L761 591Z" fill="#fe9849" stroke="#fe9849"></path><path d="M808 506L900 405L800 367Z" fill="#fe9849" stroke="#fe9849"></path><path d="M515 988L605 998L624 910Z" fill="#fe9849" stroke="#fe9849"></path><path d="M900 598L900 483L808 506Z" fill="#ff9f4a" stroke="#ff9f4a"></path><path d="M800 367L827 267L677 285Z" fill="#fe9849" stroke="#fe9849"></path><path d="M0 787L99 916L136 766Z" fill="#ff9f4a" stroke="#ff9f4a"></path><path d="M295 935L280 1016L415 972Z" fill="#fc8b47" stroke="#fc8b47"></path><path d="M235 1024L295 935L225 885Z" fill="#f36a48" stroke="#f36a48"></path><path d="M415 972L465 1061L515 988Z" fill="#ee5c4a" stroke="#ee5c4a"></path><path d="M515 988L604 1090L605 998Z" fill="#fc8b47" stroke="#fc8b47"></path><path d="M534 0L478 64L580 126Z" fill="#fb8547" stroke="#fb8547"></path><path d="M580 126L478 64L568 168Z" fill="#ee5c4a" stroke="#ee5c4a"></path><path d="M400 0L318 66L387 81Z" fill="#ff9f4a" stroke="#ff9f4a"></path><path d="M387 81L318 66L389 189Z" fill="#fd9248" stroke="#fd9248"></path><path d="M900 291L827 267L800 367Z" fill="#fe9849" stroke="#fe9849"></path><path d="M900 483L900 405L808 506Z" fill="#fc8b47" stroke="#fc8b47"></path><path d="M0 173L92 237L163 173Z" fill="#f16349" stroke="#f16349"></path><path d="M92 237L0 265L105 334Z" fill="#fd9248" stroke="#fd9248"></path><path d="M900 819L900 712L799 699Z" fill="#ff9f4a" stroke="#ff9f4a"></path><path d="M123 992L235 1024L225 885Z" fill="#f57148" stroke="#f57148"></path><path d="M437 1081L465 1061L415 972Z" fill="#ff9f4a" stroke="#ff9f4a"></path><path d="M719 1025L768 921L624 910Z" fill="#f57148" stroke="#f57148"></path><path d="M783 833L900 819L799 699Z" fill="#f77747" stroke="#f77747"></path><path d="M437 1081L415 972L307 1070Z" fill="#fd9248" stroke="#fd9248"></path><path d="M827 267L772 166L707 181Z" fill="#fc8b47" stroke="#fc8b47"></path><path d="M707 181L690 68L580 126Z" fill="#f77747" stroke="#f77747"></path><path d="M307 1070L415 972L280 1016Z" fill="#ee5c4a" stroke="#ee5c4a"></path><path d="M691 1084L719 1025L605 998Z" fill="#ff9f4a" stroke="#ff9f4a"></path><path d="M605 998L719 1025L624 910Z" fill="#ff9f4a" stroke="#ff9f4a"></path><path d="M235 1024L307 1070L280 1016Z" fill="#f16349" stroke="#f16349"></path><path d="M0 1012L123 992L99 916Z" fill="#ee5c4a" stroke="#ee5c4a"></path><path d="M99 916L123 992L225 885Z" fill="#f57148" stroke="#f57148"></path><path d="M235 1024L175 1105L307 1070Z" fill="#fc8b47" stroke="#fc8b47"></path><path d="M900 405L900 291L800 367Z" fill="#f36a48" stroke="#f36a48"></path><path d="M900 171L795 104L772 166Z" fill="#ff9f4a" stroke="#ff9f4a"></path><path d="M318 66L233 0L218 120Z" fill="#fd9248" stroke="#fd9248"></path><path d="M478 64L400 0L387 81Z" fill="#f57148" stroke="#f57148"></path><path d="M534 0L400 0L478 64Z" fill="#f36a48" stroke="#f36a48"></path><path d="M900 903L900 819L783 833Z" fill="#f77747" stroke="#f77747"></path><path d="M795 104L690 68L772 166Z" fill="#fb8547" stroke="#fb8547"></path><path d="M772 166L690 68L707 181Z" fill="#f57148" stroke="#f57148"></path><path d="M0 787L0 910L99 916Z" fill="#f36a48" stroke="#f36a48"></path><path d="M638 0L534 0L580 126Z" fill="#fb8547" stroke="#fb8547"></path><path d="M604 1090L515 988L465 1061Z" fill="#fb8547" stroke="#fb8547"></path><path d="M768 921L900 903L783 833Z" fill="#fb8547" stroke="#fb8547"></path><path d="M400 0L296 0L318 66Z" fill="#f77747" stroke="#f77747"></path><path d="M85 60L0 173L163 173Z" fill="#ee5c4a" stroke="#ee5c4a"></path><path d="M85 60L163 173L218 120Z" fill="#ff9f4a" stroke="#ff9f4a"></path><path d="M514 1200L604 1090L465 1061Z" fill="#ee5c4a" stroke="#ee5c4a"></path><path d="M296 0L233 0L318 66Z" fill="#f57148" stroke="#f57148"></path><path d="M900 171L772 166L827 267Z" fill="#f77747" stroke="#f77747"></path><path d="M690 68L638 0L580 126Z" fill="#fc8b47" stroke="#fc8b47"></path><path d="M774 1086L775 1021L719 1025Z" fill="#f16349" stroke="#f16349"></path><path d="M719 1025L775 1021L768 921Z" fill="#f36a48" stroke="#f36a48"></path><path d="M677 0L638 0L690 68Z" fill="#ff9f4a" stroke="#ff9f4a"></path><path d="M116 0L85 60L218 120Z" fill="#f97e47" stroke="#f97e47"></path><path d="M900 1003L900 903L768 921Z" fill="#f36a48" stroke="#f36a48"></path><path d="M604 1090L691 1084L605 998Z" fill="#fe9849" stroke="#fe9849"></path><path d="M95 1066L175 1105L123 992Z" fill="#f36a48" stroke="#f36a48"></path><path d="M123 992L175 1105L235 1024Z" fill="#fe9849" stroke="#fe9849"></path><path d="M335 1200L430 1200L437 1081Z" fill="#fb8547" stroke="#fb8547"></path><path d="M437 1081L514 1200L465 1061Z" fill="#f57148" stroke="#f57148"></path><path d="M810 0L677 0L690 68Z" fill="#ff9f4a" stroke="#ff9f4a"></path><path d="M0 1012L95 1066L123 992Z" fill="#ee5c4a" stroke="#ee5c4a"></path><path d="M900 291L900 171L827 267Z" fill="#f77747" stroke="#f77747"></path><path d="M795 104L810 0L690 68Z" fill="#f97e47" stroke="#f97e47"></path><path d="M85 60L0 99L0 173Z" fill="#fb8547" stroke="#fb8547"></path><path d="M0 910L0 1012L99 916Z" fill="#ee5c4a" stroke="#ee5c4a"></path><path d="M233 0L116 0L218 120Z" fill="#fc8b47" stroke="#fc8b47"></path><path d="M85 60L0 0L0 99Z" fill="#f77747" stroke="#f77747"></path><path d="M716 1200L774 1086L691 1084Z" fill="#f36a48" stroke="#f36a48"></path><path d="M691 1084L774 1086L719 1025Z" fill="#fc8b47" stroke="#fc8b47"></path><path d="M775 1021L900 1003L768 921Z" fill="#ee5c4a" stroke="#ee5c4a"></path><path d="M716 1200L691 1084L604 1090Z" fill="#fb8547" stroke="#fb8547"></path><path d="M900 171L900 121L795 104Z" fill="#ff9f4a" stroke="#ff9f4a"></path><path d="M335 1200L437 1081L307 1070Z" fill="#ee5c4a" stroke="#ee5c4a"></path><path d="M202 1200L307 1070L175 1105Z" fill="#ff9f4a" stroke="#ff9f4a"></path><path d="M202 1200L335 1200L307 1070Z" fill="#f57148" stroke="#f57148"></path><path d="M430 1200L514 1200L437 1081Z" fill="#ee5c4a" stroke="#ee5c4a"></path><path d="M900 1096L900 1003L775 1021Z" fill="#f97e47" stroke="#f97e47"></path><path d="M0 1012L0 1068L95 1066Z" fill="#ff9f4a" stroke="#ff9f4a"></path><path d="M73 1200L202 1200L175 1105Z" fill="#f77747" stroke="#f77747"></path><path d="M514 1200L573 1200L604 1090Z" fill="#fd9248" stroke="#fd9248"></path><path d="M900 0L810 0L795 104Z" fill="#f57148" stroke="#f57148"></path><path d="M73 1200L175 1105L95 1066Z" fill="#f16349" stroke="#f16349"></path><path d="M116 0L0 0L85 60Z" fill="#ee5c4a" stroke="#ee5c4a"></path><path d="M573 1200L716 1200L604 1090Z" fill="#f77747" stroke="#f77747"></path><path d="M774 1086L900 1096L775 1021Z" fill="#f57148" stroke="#f57148"></path><path d="M835 1200L900 1096L774 1086Z" fill="#fb8547" stroke="#fb8547"></path><path d="M900 121L900 0L795 104Z" fill="#f16349" stroke="#f16349"></path><path d="M0 1068L73 1200L95 1066Z" fill="#fc8b47" stroke="#fc8b47"></path><path d="M716 1200L835 1200L774 1086Z" fill="#ff9f4a" stroke="#ff9f4a"></path><path d="M0 1068L0 1200L73 1200Z" fill="#f97e47" stroke="#f97e47"></path><path d="M835 1200L900 1200L900 1096Z" fill="#f57148" stroke="#f57148"></path></g></svg>